# xmcd
#
# Track frame offsets: 
#        150
#        13946
#        27574
#        40467
#        58044
#        68387
#        81801
#        95195
#        108306
#        120486
#        131375
#        146378
#        161403
#        174005
#        185343
#        199944
#        229660
#        243552
#        256147
#        271449
#        288356
#        299545
#        315064
#        330009
#
# Disc length: 4640 seconds
#
# Revision: 0
# Processed by: cddbd v1.5.2PL0 Copyright (c) Steve Scherf et al.
# Submitted via: ExactAudioCopy v0.99pb4
#
DISCID=48121e18
DTITLE=King Floyd - I Feel Like Dynamite ? The Early Chimneyville Sing
DTITLE=les and More 1970-74
DYEAR=1974
DGENRE=Soul
TTITLE0=What Our Love Needs
TTITLE1=Groove Me
TTITLE2=Baby Let Me Kiss You
TTITLE3=Please Don't Leave Me Lonely
TTITLE4=Got To Have Your Lovin' (M)
TTITLE5=Let Us Be
TTITLE6=Let Me See You Do That Thing (M)
TTITLE7=It's Wonderful
TTITLE8=Everybody Needs Somebody
TTITLE9=Woman Don't Go Astray
TTITLE10=Think About It
TTITLE11=Here It Is
TTITLE12=Messin' Up My Mind
TTITLE13=So Glad I Found You
TTITLE14=A Day In The Life Of A Fool
TTITLE15=My Girl
TTITLE16=Do Your Feeling
TTITLE17=It's Not What You Say
TTITLE18=Thank You
TTITLE19=You've Got Me
TTITLE20=Hard To Handle
TTITLE21=So Much Confusion
TTITLE22=I Feel Like Dynamite
TTITLE23=Handle With Care
EXTD=
EXTT0=
EXTT1=
EXTT2=
EXTT3=
EXTT4=
EXTT5=
EXTT6=
EXTT7=
EXTT8=
EXTT9=
EXTT10=
EXTT11=
EXTT12=
EXTT13=
EXTT14=
EXTT15=
EXTT16=
EXTT17=
EXTT18=
EXTT19=
EXTT20=
EXTT21=
EXTT22=
EXTT23=
PLAYORDER=
